<?xml version="1.0" encoding="utf-8" ?>
<svg baseProfile="tiny" height="100%" version="1.2" width="100%" xmlns="http://www.w3.org/2000/svg" xmlns:ev="http://www.w3.org/2001/xml-events" xmlns:xlink="http://www.w3.org/1999/xlink"><defs /><polygon fill="currentColor" points="116,29 114,31 114,32 111,35 111,36 108,39 108,40 106,42 106,43 103,46 103,47 100,50 100,51 97,54 97,55 94,58 94,59 91,62 91,63 85,69 85,70 83,72 82,72 81,71 80,71 78,69 77,69 74,66 73,66 71,64 70,64 68,62 67,62 65,60 64,60 62,58 61,58 58,55 57,55 55,53 54,53 52,51 51,51 48,48 47,48 45,46 44,46 42,44 41,44 39,42 38,43 38,44 36,46 36,47 35,48 35,49 33,51 33,52 32,53 32,54 33,55 34,55 37,58 38,58 40,60 41,60 44,63 45,63 47,65 48,65 51,68 52,68 55,71 56,71 58,73 59,73 62,76 63,76 65,78 66,78 69,81 70,81 73,84 74,84 75,85 74,86 74,87 72,89 72,90 70,92 70,93 67,96 67,97 65,99 65,100 62,103 62,104 60,106 60,107 58,109 58,110 56,112 56,113 54,115 54,116 52,118 52,119 50,121 50,122 48,124 48,125 46,127 46,128 44,130 46,132 47,132 49,134 50,134 52,136 53,136 55,138 56,137 56,136 58,134 58,133 61,130 61,129 63,127 63,126 65,124 65,123 67,121 67,120 69,118 69,117 72,114 72,113 74,111 74,110 76,108 76,107 78,105 78,104 81,101 81,100 83,98 83,97 87,93 88,93 89,94 90,94 92,96 93,96 95,98 96,98 98,100 99,100 101,102 102,102 104,104 105,104 107,106 108,106 110,108 111,108 113,110 114,110 116,112 117,112 118,113 119,113 121,115 122,115 124,117 125,117 127,119 128,119 130,121 131,121 132,122 133,122 135,124 135,123 138,120 138,119 140,117 140,116 142,114 142,113 140,111 139,111 137,109 136,109 134,107 133,107 131,105 130,105 128,103 127,103 125,101 124,101 122,99 121,99 119,97 118,97 116,95 115,95 113,93 112,93 110,91 109,91 106,88 105,88 103,86 102,86 99,83 98,83 96,81 97,80 97,79 100,76 100,75 102,73 102,72 105,69 105,68 107,66 107,65 110,62 110,61 112,59 112,58 115,55 115,54 118,51 118,50 120,48 120,47 123,44 123,43 125,41 125,40 128,37 128,36 127,35 126,35 124,33 123,33 121,31 120,31 118,29" /></svg>