<?xml version="1.0" encoding="utf-8" ?>
<svg baseProfile="tiny" height="100%" version="1.2" width="100%" xmlns="http://www.w3.org/2000/svg" xmlns:ev="http://www.w3.org/2001/xml-events" xmlns:xlink="http://www.w3.org/1999/xlink"><defs /><polygon fill="currentColor" points="32,44 31,45 31,46 30,47 30,48 28,50 28,51 26,53 26,54 25,55 25,56 28,59 29,59 32,62 33,62 36,65 37,65 40,68 41,68 44,71 45,71 48,74 49,74 52,77 53,77 56,80 57,80 60,83 61,83 63,85 64,85 66,87 67,87 70,90 71,90 73,92 74,92 76,94 77,94 79,96 80,96 83,99 84,99 86,101 87,101 89,103 90,103 93,106 94,106 96,108 97,108 99,110 100,110 102,112 103,112 105,114 106,114 109,117 110,117 112,119 113,119 115,121 116,121 118,123 119,123 121,125 122,125 124,127 125,127 126,128 127,127 127,126 130,123 130,122 132,120 132,119 134,117 133,116 132,116 130,114 129,114 127,112 126,112 124,110 123,110 121,108 120,108 118,106 117,106 115,104 114,104 112,102 111,102 109,100 108,100 105,97 104,97 102,95 101,95 98,92 97,92 95,90 94,90 91,87 90,87 87,84 86,84 84,82 83,82 80,79 79,79 76,76 75,76 73,74 72,74 69,71 68,71 65,68 64,68 61,65 60,65 57,62 56,62 54,60 53,60 50,57 49,57 46,54 45,54 42,51 41,51 38,48 37,48 35,46 34,46" /></svg>