<?xml version="1.0" encoding="utf-8" ?>
<svg baseProfile="tiny" height="100%" version="1.2" width="100%" xmlns="http://www.w3.org/2000/svg" xmlns:ev="http://www.w3.org/2001/xml-events" xmlns:xlink="http://www.w3.org/1999/xlink"><defs /><polygon fill="currentColor" points="59,34 57,36 56,36 53,39 52,39 49,42 49,43 51,45 51,46 52,47 52,48 53,49 53,50 54,51 54,53 48,59 48,60 46,62 46,63 45,64 45,65 44,66 44,67 43,68 43,69 42,70 42,71 41,72 41,74 40,75 40,78 39,79 39,83 38,84 38,96 39,97 39,100 40,101 40,103 41,104 41,106 42,107 42,108 43,109 42,110 41,110 40,111 39,111 36,114 35,114 34,115 33,115 31,117 31,118 32,119 32,120 33,121 33,122 36,125 36,126 38,128 39,128 41,126 42,126 43,125 44,125 46,123 47,123 49,121 52,121 60,129 61,129 63,131 64,131 65,132 66,132 67,133 68,133 69,134 70,134 71,135 72,135 73,136 76,136 77,137 80,137 81,138 88,138 89,139 90,138 97,138 98,137 102,137 103,136 106,136 107,135 108,135 113,140 113,141 115,143 115,144 117,146 118,146 119,145 120,145 122,143 123,143 125,141 126,141 128,139 128,138 126,136 126,135 124,133 124,132 122,130 122,129 121,128 124,125 124,124 130,118 130,117 131,116 131,115 132,114 132,112 133,111 133,110 134,109 134,107 135,106 135,105 136,104 136,101 137,100 137,93 138,92 138,88 137,87 137,80 136,79 136,75 135,74 135,73 134,72 134,70 135,69 136,69 138,67 139,67 141,65 142,65 143,64 144,64 145,63 144,62 144,61 142,59 142,58 139,55 139,54 137,52 135,52 134,53 133,53 131,55 130,55 128,57 127,57 126,58 120,52 119,52 117,50 116,50 114,48 113,48 112,47 111,47 110,46 108,46 107,45 106,45 105,44 104,44 103,43 101,43 100,42 97,42 96,41 82,41 81,42 77,42 76,43 73,43 72,44 70,44 69,45 68,45 66,43 66,42 64,40 64,39 62,37 62,36 60,34" /></svg>